<?xml version="1.0" standalone="no"?>
<!DOCTYPE svg PUBLIC "-//W3C//DTD SVG 20010904//EN"
 "http://www.w3.org/TR/2001/REC-SVG-20010904/DTD/svg10.dtd">
<svg version="1.0" xmlns="http://www.w3.org/2000/svg"
 width="512.000000pt" height="512.000000pt" viewBox="0 0 512.000000 512.000000"
 preserveAspectRatio="xMidYMid meet">
<metadata>
Created by potrace 1.16, written by Peter Selinger 2001-2019
</metadata>
<g transform="translate(0.000000,512.000000) scale(0.100000,-0.100000)"
fill="#1abc9c" stroke="none">
<path d="M3800 4803 c-34 -13 -50 -37 -50 -75 l0 -38 -100 0 c-87 0 -103 -3
-120 -20 -11 -11 -20 -31 -20 -44 l0 -25 -314 -3 c-300 -3 -316 -4 -342 -24
-55 -41 -69 -70 -73 -155 l-3 -79 -29 0 c-66 0 -95 -88 -43 -129 l27 -21 -25
0 c-35 0 -48 18 -48 67 0 53 -26 83 -72 83 -56 0 -78 -30 -78 -107 1 -63 29
-124 75 -158 32 -25 48 -29 121 -33 67 -4 84 -8 89 -21 3 -10 19 -31 36 -47
l30 -29 325 -3 324 -3 0 -28 c0 -16 10 -37 23 -49 21 -19 34 -22 120 -22 l97
0 0 -38 c0 -67 14 -72 192 -72 196 0 188 -6 188 148 l0 111 259 3 c244 3 261
4 288 24 15 11 36 37 46 57 l19 37 124 0 c166 0 164 -2 164 158 0 156 4 152
-161 152 l-124 0 -20 37 c-11 21 -35 48 -54 60 -33 22 -40 23 -287 23 l-254 0
0 113 c0 154 3 151 -179 154 -75 1 -143 0 -151 -4z m180 -533 l0 -390 -40 0
-40 0 0 390 0 390 40 0 40 0 0 -390z m-230 -5 l0 -275 -45 0 -45 0 0 275 0
275 45 0 45 0 0 -275z m-730 5 l0 -180 -45 0 -45 0 0 180 0 180 45 0 45 0 0
-180z m250 0 l0 -180 -50 0 -50 0 0 180 0 180 50 0 50 0 0 -180z m240 0 l0
-180 -45 0 -45 0 0 180 0 180 45 0 45 0 0 -180z m1080 -5 l0 -125 -230 0 -230
0 0 125 0 125 230 0 230 0 0 -125z"/>
<path d="M1367 4322 c-27 -30 -22 -87 9 -111 25 -19 40 -21 205 -21 l179 0 0
-125 0 -125 -347 0 -348 0 -40 -24 c-30 -19 -51 -44 -85 -108 l-45 -83 -130
-5 c-145 -6 -177 -17 -217 -72 -23 -33 -23 -37 -26 -330 l-3 -298 -144 0 -145
0 0 263 c0 252 -1 265 -20 282 -11 10 -34 18 -50 18 -16 0 -39 -8 -50 -18 -20
-18 -20 -30 -20 -616 0 -650 -3 -620 55 -635 23 -6 64 10 77 30 4 6 8 127 8
269 l0 257 145 0 145 0 0 -280 c0 -314 2 -328 66 -376 33 -26 47 -29 126 -32
l88 -4 40 -60 c33 -50 40 -69 40 -110 0 -102 -64 -169 -180 -187 -129 -21
-150 -58 -150 -266 0 -123 3 -156 18 -185 23 -46 70 -76 134 -84 69 -10 118
-38 152 -89 24 -37 27 -50 24 -104 -3 -51 -9 -69 -34 -100 -46 -57 -54 -77
-54 -130 0 -59 9 -74 119 -186 144 -148 200 -161 315 -73 66 50 120 56 191 22
66 -33 93 -73 105 -158 9 -65 28 -98 74 -132 25 -19 41 -21 196 -21 155 0 171
2 196 21 46 34 65 67 74 133 11 81 41 125 107 157 69 34 124 28 189 -22 115
-88 171 -75 315 73 110 112 119 127 119 186 0 53 -8 73 -54 130 -25 31 -31 49
-34 100 -3 54 0 67 24 104 34 51 83 79 152 89 64 8 111 38 134 84 15 29 18 62
18 185 0 208 -21 245 -150 266 -56 8 -140 47 -140 64 0 3 99 5 220 5 l220 0 0
-617 c0 -605 0 -618 21 -660 74 -153 364 -265 755 -293 486 -34 958 97 1053
294 21 43 21 44 19 1133 l-3 1089 -28 42 c-101 154 -433 264 -824 274 l-113 3
0 38 c0 57 -19 85 -132 192 -145 137 -205 160 -298 113 -57 -30 -80 -62 -94
-134 l-12 -59 -54 0 -55 0 -5 100 c-6 107 -12 125 -57 166 -51 48 -58 49 -336
49 l-265 0 -138 146 c-76 80 -150 152 -165 160 -22 11 -82 14 -284 14 l-255 0
0 124 0 125 184 3 c164 3 186 5 205 22 27 25 28 79 1 106 -19 19 -33 20 -468
20 -422 0 -450 -1 -465 -18z m1146 -672 c71 -77 143 -148 160 -158 28 -15 71
-18 307 -22 l275 -5 5 -100 c6 -106 12 -125 57 -167 40 -38 74 -48 161 -48 61
0 85 5 117 23 47 27 85 88 85 138 0 40 21 65 43 52 42 -24 187 -173 187 -191
0 -24 -11 -28 -105 -37 -95 -9 -273 -55 -368 -95 -95 -39 -182 -102 -222 -160
l-30 -43 -3 -399 -3 -398 -239 0 c-132 0 -240 4 -240 9 0 4 21 39 46 77 43 65
45 72 42 127 l-4 58 -115 115 c-88 88 -123 117 -154 125 -49 14 -98 0 -149
-40 -75 -60 -154 -65 -228 -16 -45 30 -77 91 -78 145 0 47 -29 100 -70 128
-31 21 -43 22 -197 22 -180 0 -205 -6 -242 -58 -11 -16 -24 -56 -30 -90 -13
-79 -33 -116 -81 -148 -75 -50 -153 -41 -237 24 -45 35 -81 45 -131 36 -30 -5
-59 -29 -148 -116 l-111 -109 -69 3 -69 3 0 615 0 615 130 5 c177 7 204 23
265 158 l29 62 643 0 643 0 128 -140z m1847 -662 c267 -29 520 -141 520 -231
0 -80 -188 -176 -441 -224 -134 -25 -534 -25 -668 0 -250 48 -441 144 -441
222 0 77 169 168 399 215 186 38 398 44 631 18z m-2447 -397 c12 -104 86 -202
187 -250 47 -22 69 -26 145 -26 94 0 132 13 208 68 l28 21 81 -81 81 -81 -31
-38 c-44 -55 -62 -114 -62 -203 0 -63 5 -86 29 -137 50 -106 140 -173 254
-189 l47 -7 0 -113 c0 -121 -2 -125 -54 -125 -46 0 -117 -33 -166 -77 -73 -65
-102 -128 -108 -230 -5 -93 9 -147 57 -216 l30 -44 -83 -82 c-82 -81 -82 -82
-101 -61 -30 33 -116 69 -181 76 -48 5 -77 2 -134 -15 -61 -19 -81 -31 -130
-79 -62 -61 -100 -140 -100 -207 l0 -35 -119 0 -118 0 -6 54 c-17 168 -186
300 -361 282 -65 -7 -151 -43 -181 -76 -19 -21 -19 -20 -101 61 l-83 82 30 44
c48 69 62 123 57 216 -6 102 -35 165 -108 230 -49 44 -120 77 -166 77 -52 0
-54 4 -54 125 l0 113 48 7 c113 16 203 83 253 189 51 108 37 252 -33 340 l-31
38 81 81 81 81 28 -21 c76 -55 114 -68 208 -68 76 0 98 4 145 26 101 48 175
146 187 250 l6 49 117 0 117 0 6 -49z m2972 -136 c-21 -145 -361 -257 -780
-257 -270 0 -475 37 -641 117 -97 47 -134 90 -134 155 0 53 4 58 35 37 35 -24
169 -74 256 -95 279 -69 689 -69 968 0 89 21 216 69 266 100 27 16 30 16 33 2
2 -9 1 -36 -3 -59z m0 -1422 c-7 -41 -42 -82 -94 -111 l-41 -23 0 623 0 623
68 35 67 35 3 -575 c1 -316 0 -589 -3 -607z m-1425 489 l0 -623 -41 23 c-23
13 -52 36 -65 51 l-24 29 0 604 0 604 65 -32 65 -32 0 -624z m200 569 c19 -5
47 -12 63 -15 l27 -6 0 -631 0 -631 -32 6 c-18 3 -49 11 -70 17 l-38 10 0 629
c0 347 3 630 8 630 4 0 23 -4 42 -9z m940 -621 l0 -629 -37 -10 c-21 -5 -50
-13 -66 -17 l-27 -6 2 633 3 633 50 12 c28 6 56 12 63 13 9 1 12 -131 12 -629z
m-570 -55 l0 -635 -49 0 c-89 0 -81 -66 -81 641 l0 629 65 0 65 0 0 -635z
m290 6 l0 -629 -22 -6 c-13 -3 -44 -6 -70 -6 l-48 0 0 635 0 635 70 0 70 0 0
-629z m565 -696 c-33 -221 -780 -338 -1263 -199 -115 33 -200 73 -251 119 -38
35 -41 41 -41 91 0 58 4 62 36 40 34 -24 164 -72 254 -94 288 -71 695 -69 983
3 99 25 219 71 260 100 20 14 22 14 25 -1 2 -9 1 -36 -3 -59z"/>
<path d="M4010 2944 c-88 -15 -140 -29 -175 -46 -115 -57 -146 -148 -79 -228
56 -66 178 -102 349 -102 171 0 293 36 349 102 84 100 17 209 -159 257 -51 13
-240 25 -285 17z m224 -159 c95 -20 101 -30 30 -51 -80 -23 -239 -23 -319 0
-52 16 -57 19 -40 29 62 35 218 45 329 22z"/>
<path d="M1657 2174 c-233 -50 -422 -231 -481 -461 -20 -78 -21 -240 -1 -318
69 -274 330 -475 615 -475 285 0 546 201 615 475 20 78 19 240 -1 318 -85 328
-416 532 -747 461z m219 -145 c149 -27 283 -132 351 -275 33 -69 38 -89 41
-172 5 -116 -15 -198 -68 -280 -200 -308 -620 -308 -820 0 -53 82 -73 164 -68
280 3 83 8 103 41 172 97 203 307 314 523 275z"/>
</g>
</svg>
